<svg width="42" height="42" viewBox="0 0 42 42" fill="none" xmlns="http://www.w3.org/2000/svg">
<circle cx="21" cy="21" r="21" fill="#6723F7"/>
<path d="M14.55 20.1833V24.325C14.55 25.8417 14.55 25.8417 15.9833 26.8083L19.925 29.0833C20.5167 29.425 21.4833 29.425 22.075 29.0833L26.0167 26.8083C27.45 25.8417 27.45 25.8417 27.45 24.325V20.1833C27.45 18.6667 27.45 18.6667 26.0167 17.7L22.075 15.425C21.4833 15.0833 20.5167 15.0833 19.925 15.425L15.9833 17.7C14.55 18.6667 14.55 18.6667 14.55 20.1833Z" stroke="white" stroke-width="2" stroke-linecap="round" stroke-linejoin="round"/>
<path d="M25.5833 17.3583V15.1667C25.5833 13.5 24.75 12.6667 23.0833 12.6667H18.9167C17.25 12.6667 16.4167 13.5 16.4167 15.1667V17.3M21.525 20.1583L22 20.9C22.075 21.0167 22.2417 21.1333 22.3667 21.1667L23.2167 21.3833C23.7417 21.5167 23.8833 21.9667 23.5417 22.3833L22.9833 23.0583C22.9 23.1667 22.8333 23.3583 22.8417 23.4917L22.8917 24.3667C22.925 24.9083 22.5417 25.1833 22.0417 24.9833L21.225 24.6583C21.0763 24.6083 20.9154 24.6083 20.7667 24.6583L19.95 24.9833C19.45 25.1833 19.0667 24.9 19.1 24.3667L19.15 23.4917C19.1583 23.3583 19.0917 23.1583 19.0083 23.0583L18.45 22.3833C18.1083 21.9667 18.25 21.5167 18.775 21.3833L19.625 21.1667C19.7583 21.1333 19.925 21.0083 19.9917 20.9L20.4667 20.1583C20.7667 19.7083 21.2333 19.7083 21.525 20.1583Z" stroke="white" stroke-width="2" stroke-linecap="round" stroke-linejoin="round"/>
</svg>
