<svg width="42" height="42" viewBox="0 0 42 42" fill="none" xmlns="http://www.w3.org/2000/svg">
<circle cx="21" cy="21" r="21" fill="#6723F7"/>
<g clip-path="url(#clip0_23_11)">
<path d="M26.8083 29.3333H15.1417C12.6417 29.3333 12.6417 28.2083 12.6417 26.8333V26C12.6417 25.5416 13.0167 25.1666 13.475 25.1666H28.475C28.9333 25.1666 29.3083 25.5416 29.3083 26V26.8333C29.3083 28.2083 29.3083 29.3333 26.8083 29.3333ZM28.2667 21.8333V25.1666H13.725V21.8333C13.7252 20.0653 14.4277 18.3697 15.6779 17.1195C16.9281 15.8693 18.6236 15.1668 20.3917 15.1666H21.6C22.0833 15.1666 22.5583 15.2166 23.0083 15.3166C26.0167 15.9666 28.2667 18.6333 28.2667 21.8333Z" stroke="white" stroke-width="2" stroke-linecap="round" stroke-linejoin="round"/>
<path d="M23.5 20.1666H18.5M23.0833 14.75C23.0833 14.95 23.0583 15.1333 23.0083 15.3166C22.5583 15.2166 22.0833 15.1666 21.6 15.1666H20.3917C19.9083 15.1666 19.4417 15.2166 18.9917 15.3166C18.9417 15.1333 18.9167 14.95 18.9167 14.75C18.9167 14.1974 19.1362 13.6675 19.5269 13.2768C19.9176 12.8861 20.4475 12.6666 21 12.6666C21.5525 12.6666 22.0824 12.8861 22.4731 13.2768C22.8638 13.6675 23.0833 14.1974 23.0833 14.75Z" stroke="white" stroke-width="2" stroke-linecap="round" stroke-linejoin="round"/>
</g>
<defs>
<clipPath id="clip0_23_11">
<rect width="20" height="20" fill="white" transform="translate(11 11)"/>
</clipPath>
</defs>
</svg>
