<svg width="20" height="20" viewBox="0 0 20 20" fill="none" xmlns="http://www.w3.org/2000/svg">
<path d="M10 11.1916C10.3415 11.1916 10.6796 11.1244 10.995 10.9937C11.3104 10.8631 11.5971 10.6715 11.8385 10.4301C12.0799 10.1887 12.2714 9.90206 12.4021 9.58662C12.5328 9.27117 12.6 8.93308 12.6 8.59164C12.6 8.2502 12.5328 7.91211 12.4021 7.59666C12.2714 7.28121 12.0799 6.99459 11.8385 6.75316C11.5971 6.51173 11.3104 6.32021 10.995 6.18955C10.6796 6.05889 10.3415 5.99164 10 5.99164C9.31046 5.99164 8.64914 6.26557 8.16155 6.75316C7.67395 7.24075 7.40002 7.90208 7.40002 8.59164C7.40002 9.2812 7.67395 9.94252 8.16155 10.4301C8.64914 10.9177 9.31046 11.1916 10 11.1916Z" stroke="#727379" stroke-width="2"/>
<path d="M3.01669 7.07502C4.65836 -0.141644 15.35 -0.133311 16.9834 7.08336C17.9417 11.3167 15.3084 14.9 13 17.1167C12.1934 17.8946 11.1165 18.3293 9.99586 18.3293C8.87523 18.3293 7.79829 17.8946 6.99169 17.1167C4.69169 14.9 2.05836 11.3084 3.01669 7.07502Z" stroke="#727379" stroke-width="2"/>
</svg>
